<?xml version="1.0" encoding="UTF-8"?>
<svg id="Livello_1" data-name="Livello 1" xmlns="http://www.w3.org/2000/svg" viewBox="0 0 941.76 1107.54">
  <defs>
    <style>
      .cls-1, .cls-2 {
        fill: #fff;
      }

      .cls-2 {
        font-family: MontserratRoman-Bold, Montserrat;
        font-size: 663.69px;
        font-variation-settings: 'wght' 700;
        font-weight: 700;
      }
    </style>
  </defs>
  <path class="cls-1" d="M503.26,75l4.15,14.35c23.06,79.66,85.34,141.95,165.01,165.01l14.35,4.15-14.35,4.15c-79.66,23.06-141.95,85.34-165.01,165.01l-4.15,14.35-4.15-14.35c-23.06-79.66-85.34-141.95-165.01-165.01l-14.35-4.15,14.35-4.15c79.66-23.06,141.95-85.34,165.01-165.01l4.15-14.35Z"/>
  <path class="cls-1" d="M710.26,0h0c11.04,38.14,40.86,67.97,79.01,79.01h0s0,0,0,0c-38.14,11.04-67.97,40.86-79.01,79.01h0s0,0,0,0c-11.04-38.14-40.86-67.97-79.01-79.01h0s0,0,0,0C669.4,67.97,699.22,38.14,710.26,0h0Z"/>
  <path class="cls-1" d="M803.26,249.51l13.35,46.14c11.04,38.14,40.86,67.97,79.01,79.01l46.14,13.35-46.14,13.35c-38.14,11.04-67.97,40.86-79.01,79.01l-13.35,46.14-13.35-46.14c-11.04-38.14-40.86-67.97-79.01-79.01l-46.14-13.35,46.14-13.35c38.14-11.04,67.97-40.86,79.01-79.01l13.35-46.14Z"/>
  <text class="cls-2" transform="translate(5.96 935.65)"><tspan x="0" y="0">AI</tspan></text>
</svg>